<?xml version="1.0" encoding="utf-8"?>
<!-- Generator: Adobe Illustrator 24.1.1, SVG Export Plug-In . SVG Version: 6.00 Build 0)  -->
<svg version="1.1" id="Layer_1" xmlns="http://www.w3.org/2000/svg" xmlns:xlink="http://www.w3.org/1999/xlink" x="0px" y="0px"
	 viewBox="0 0 50 50" style="enable-background:new 0 0 50 50;" xml:space="preserve">
<style type="text/css">
	.st0{display:none;}
	.st1{display:inline;fill:none;}
	.st2{display:inline;fill:#A7ADBA;}
	.st3{display:inline;fill:url(#SVGID_1_);}
	.st4{fill:url(#SVGID_2_);}
	.st5{fill:#A7ADBA;}
</style>
<linearGradient id="SVGID_1_" gradientUnits="userSpaceOnUse" x1="20.4628" y1="25" x2="29.5372" y2="25" gradientTransform="matrix(0.7071 -0.7071 0.7071 0.7071 -10.3553 25)">
	<stop  offset="0" style="stop-color:#2EB2E7"/>
	<stop  offset="1" style="stop-color:#64BB46"/>
</linearGradient>
<path style="fill:url(#SVGID_1_);" d="M28.2,21.8c1.8,1.8,1.8,4.6-0.1,6.4c-1.7,1.7-4.5,1.8-6.4,0c-2-2-1.6-4.9,0-6.5
	C23.6,20,26.5,20,28.2,21.8z"/>
<path class="st5" d="M48.1,22.4c-0.5-0.8-1.3-1.5-2.3-2.2c-1.7-1.2-3.8-2.2-6.4-3c-0.3-0.1-0.7-0.3-0.5-0.9c0.4-2,0.6-3.8,0.7-5.5v0
	c0-1.2-0.1-2.2-0.3-3.2c-0.3-1.4-0.8-2.4-1.6-3.1c-1-0.9-2.3-1.2-3.9-0.9c-1.8,0.4-3.4,1.3-4.6,2.1c-1.1,0.7-2.3,1.6-3.4,2.7
	c-0.6,0.5-0.8,0.5-1.4,0c-0.8-0.7-1.5-1.3-2.3-1.9c-1.7-1.3-3.7-2.5-6-2.9c-0.3-0.1-0.7-0.1-1-0.1c-1.4,0-2.8,0.5-3.7,2.5
	C10.7,7.5,10.4,9,10.4,11c0,1.7,0.2,3.5,0.7,5.3c0.1,0.3,0.1,0.8-0.6,1c-1.9,0.6-3.6,1.3-5.1,2.2c-1.6,0.9-2.7,1.8-3.5,2.9
	c-1.2,1.6-1.3,3.3-0.1,5C2.3,28.2,3,28.9,4,29.6c1.8,1.3,3.8,2.2,6.5,3.1c0.5,0.2,0.7,0.5,0.6,1.1c-0.6,2.8-0.8,5-0.6,7
	c0.2,1.5,0.5,2.6,1,3.6c0.8,1.3,1.9,2,3.4,2c1.1,0,2.2-0.2,3.6-0.8c1.9-0.9,3.8-2.2,5.9-4.1c0.2-0.2,0.6-0.5,1.1,0
	c0.9,0.9,1.9,1.6,2.9,2.3c1.4,0.9,3.2,2.1,5.5,2.5c2.2,0.4,3.9-0.4,4.8-2.4c0.5-1.1,0.8-2.3,0.8-4.1c0.1-1.8-0.1-3.8-0.7-6.1
	c-0.1-0.5,0.1-0.8,0.5-0.9c1.3-0.4,2.5-0.9,3.6-1.4c1.6-0.8,3.4-1.8,4.8-3.5C49.4,26.1,49.4,24.3,48.1,22.4z M26.5,9.7
	c1.8-1.6,3.9-3.3,6.4-4.2c0.7-0.2,1.5-0.5,2.5-0.3c0.8,0.1,1.4,0.6,1.8,1.4c0.5,0.9,0.6,1.9,0.7,2.7l0,0.2c0.1,0.5,0.1,0.9,0.1,1.3
	c0,2.1-0.3,3.9-0.6,5.2c0,0.2-0.1,0.4-0.3,0.5c-0.1,0.1-0.2,0.1-0.3,0.1c-0.1,0-0.2,0-0.2,0c-1.8-0.4-3.7-0.8-5.7-1
	c-0.3,0-0.4-0.1-0.6-0.3c-1.1-1.5-2.4-3.1-3.8-4.6c-0.1-0.1-0.2-0.2-0.2-0.5C26.3,9.9,26.5,9.7,26.5,9.7z M14.5,27.6l0.3-0.7
	l0.5,0.7c0,0.1,0.1,0.1,0.1,0.2c0.8,1.5,1.7,3,2.5,4.4l0.4,0.7l-0.8-0.1c-1.1-0.1-2.2-0.3-3.4-0.6c-0.4-0.1-0.7-0.2-0.8-0.4
	c-0.1-0.3-0.1-0.5,0.1-0.9C13.8,29.5,14.1,28.6,14.5,27.6z M14,21.2c-0.3-0.8-0.6-1.6-0.8-2.5c0-0.1-0.1-0.3,0-0.5
	c0.1-0.2,0.3-0.3,0.4-0.3c1.3-0.3,2.6-0.5,3.9-0.7l0.8-0.1l-0.4,0.7c-1,1.6-1.9,3.1-2.7,4.7l-0.3,0.6l-0.3-0.6
	c-0.2-0.4-0.3-0.7-0.4-1L14,21.2z M15.8,25.5c-0.2-0.3-0.2-0.6,0-0.9c1.2-2.6,2.6-5,4.2-7.2c0.2-0.3,0.4-0.4,0.8-0.5
	c1.4-0.1,2.9-0.2,4.3-0.2h0c1.4,0,2.8,0,4.2,0.2c0.3,0,0.6,0.2,0.7,0.4c1.6,2.3,3,4.7,4.1,7.1c0.2,0.4,0.2,0.7,0,1.1
	C33,28,31.6,30.4,30,32.8c-0.2,0.3-0.4,0.4-0.7,0.4c-1.5,0.1-3,0.2-4.4,0.2c-1.2,0-2.3,0-3.5-0.1c-0.8,0-1.2-0.3-1.7-1
	C18.2,30,16.9,27.8,15.8,25.5z M32.1,32.2c1-1.5,1.8-3,2.7-4.6l0.4-0.7l0.5,1.3c0.1,0.3,0.2,0.6,0.3,0.9c0.2,0.5,0.3,0.9,0.5,1.4
	l0.3,0.9c0,0.1,0.1,0.3,0,0.5c-0.1,0.1-0.2,0.2-0.4,0.3c-1.5,0.3-2.6,0.6-3.8,0.7l-0.1,0L32,32.5L32.1,32.2z M35.5,22.4l-0.3,0.8
	l-0.4-0.7c-0.7-1.4-1.6-2.9-2.7-4.7l-0.4-0.7l0.8,0.1c1.1,0.1,2,0.3,3,0.5c0.1,0,0.2,0.1,0.4,0.1c0.2,0,0.3,0.1,0.5,0.1
	c0.1,0,0.3,0,0.4,0.3c0.1,0.2,0.1,0.4,0,0.5C36.4,20,36,21.2,35.5,22.4z M24.1,12.1L24.1,12.1c0.4-0.4,0.6-0.7,0.9-0.6
	c0.3,0,0.5,0.2,0.8,0.6l0.2,0.3c0.6,0.7,1.3,1.5,2,2.4l0.5,0.6l-1.4,0c-1.6,0-3.1-0.1-4.8,0l-0.8,0.1l0.5-0.7
	c0.5-0.7,1.1-1.4,1.6-1.9l0.4-0.4C23.9,12.3,24,12.2,24.1,12.1z M12.4,7.2c0.8-2,1.9-2.3,3.6-2c1.9,0.3,3.5,1.4,4.9,2.4
	c0.8,0.6,1.6,1.2,2.5,2c0.1,0.1,0.3,0.3,0.3,0.5c0,0.2-0.1,0.4-0.2,0.5c-1.4,1.4-2.6,3-3.7,4.5c-0.2,0.3-0.5,0.4-0.7,0.4
	c-2.1,0.2-4,0.6-5.7,1c-0.1,0-0.2,0-0.3,0c-0.1,0-0.2,0-0.3-0.1c-0.2-0.1-0.3-0.3-0.3-0.5c-0.3-1.6-0.6-3.3-0.6-5.1
	C11.9,9.4,12.1,8.3,12.4,7.2z M11.5,31.3c-0.1,0-0.2,0.1-0.3,0.1c-0.1,0-0.2,0-0.3,0c-2.1-0.7-4.5-1.6-6.6-3.3
	c-0.8-0.6-1.6-1.4-1.9-2.5c0-0.1,0-0.2-0.1-0.3l0-0.2c0.1-1,0.6-1.7,1.1-2.2c1.3-1.4,2.9-2.2,4.5-3c1-0.4,2-0.8,2.9-1.1
	c0.1,0,0.3-0.1,0.6,0c0.2,0.1,0.3,0.3,0.3,0.4c0.6,1.9,1.2,3.7,2,5.4c0.1,0.3,0.1,0.6,0,0.9c-0.7,1.7-1.4,3.5-1.9,5.3
	C11.8,31,11.8,31.2,11.5,31.3z M23.5,40.3c-1.7,1.5-3.7,3.2-6.3,4.2c-0.7,0.3-1.4,0.4-2,0.4c0,0,0,0,0,0c-1.3,0-2.1-0.6-2.6-1.9
	c-0.5-1.3-0.7-2.7-0.6-4.5c0.1-1.3,0.2-2.7,0.6-4.3c0-0.2,0.1-0.4,0.3-0.6c0.2-0.1,0.5-0.1,0.7-0.1c1.6,0.4,3.5,0.7,5.5,0.9
	c0.2,0,0.5,0.1,0.7,0.4c1.1,1.5,2.3,3,3.8,4.6c0.1,0.1,0.2,0.2,0.2,0.5C23.7,40.1,23.5,40.3,23.5,40.3z M25.5,38.3
	c-0.1,0.1-0.3,0.3-0.5,0.3c0,0,0,0,0,0c-0.2,0-0.3-0.1-0.4-0.2c-0.8-0.9-1.7-1.8-2.6-3.1l-0.5-0.7l0.8,0.1c2,0.1,3.7,0.1,5.4,0
	l0.7-0.1L28,35.3c-0.3,0.5-0.7,0.9-1,1.3l-0.2,0.2c-0.3,0.4-0.6,0.7-1,1.1L25.5,38.3z M37.5,42.9c-0.6,1.5-1.4,2-2.5,2
	c-0.3,0-0.7,0-1-0.1c-1.9-0.4-3.6-1.4-4.9-2.4c-0.8-0.6-1.6-1.2-2.5-2.1c-0.1-0.1-0.2-0.2-0.3-0.5c0-0.2,0.1-0.4,0.2-0.5
	c1.3-1.4,2.6-2.9,3.8-4.6c0.2-0.3,0.5-0.3,0.6-0.4c2.1-0.2,4-0.6,5.7-1c0.2,0,0.4-0.1,0.6,0c0.2,0.1,0.3,0.4,0.3,0.5
	c0.3,1.4,0.6,3.2,0.6,5C38.1,40.2,38,41.6,37.5,42.9z M47.6,25c0,1-0.5,1.6-1,2.2c-0.7,0.8-1.6,1.4-2.8,2.1c-1.3,0.8-2.8,1.4-4.7,2
	c-0.1,0-0.2,0.1-0.3,0.1c-0.1,0-0.2,0-0.3-0.1c-0.2-0.1-0.3-0.3-0.3-0.5c-0.5-1.7-1.1-3.4-2-5.4c-0.1-0.3-0.1-0.6,0-0.8
	c0.9-2,1.5-3.8,2-5.5c0-0.1,0.1-0.3,0.3-0.4c0.1-0.1,0.3-0.1,0.5,0c2.6,0.9,5.4,2,7.5,4.1c0.5,0.5,0.9,1.1,1,1.7
	c0,0.1,0,0.2,0.1,0.3L47.6,25L47.6,25z"/>
</svg>
