<?xml version="1.0" encoding="utf-8"?>
<!-- Generator: Adobe Illustrator 21.0.0, SVG Export Plug-In . SVG Version: 6.00 Build 0)  -->
<svg version="1.1" id="Layer_1" xmlns="http://www.w3.org/2000/svg" xmlns:xlink="http://www.w3.org/1999/xlink" x="0px" y="0px"
	 viewBox="0 0 50 50" style="enable-background:new 0 0 50 50;" xml:space="preserve">
<style type="text/css">
	.st0{fill:#A7ADBA;}
	.st1{fill:url(#SVGID_1_);}
</style>
<path class="st0" d="M15,46c-1,0-1.8-0.8-1.8-1.8c0-1,0.8-1.8,1.8-1.8h1.1l2.1-4h-7.8c-0.3,0-0.5-0.2-0.5-0.5c0-0.3,0.2-0.5,0.5-0.5
	h34.3c1.8,0,3.3-1.5,3.3-3.3V8.3c0-1.8-1.5-3.3-3.3-3.3H5.2C3.4,5,1.9,6.4,1.9,8.3v25.8c0,1.8,1.5,3.3,3.3,3.3h2.3
	c0.3,0,0.5,0.2,0.5,0.5c0,0.3-0.2,0.5-0.5,0.5H5.2c-2.3,0-4.2-1.9-4.2-4.2V8.3C1,5.9,2.9,4,5.2,4h39.5C47.1,4,49,5.9,49,8.3v25.8
	c0,2.3-1.9,4.2-4.2,4.2h-13l2.1,4H35c1,0,1.8,0.8,1.8,1.8c0,1-0.8,1.8-1.8,1.8H15z M15,43.3c-0.5,0-0.9,0.4-0.9,0.9
	c0,0.5,0.4,0.9,0.9,0.9H35c0.5,0,0.9-0.4,0.9-0.9c0-0.5-0.4-0.9-0.9-0.9H15z M17.2,42.4h15.6l-2.1-4H19.3L17.2,42.4z"/>
<linearGradient id="SVGID_1_" gradientUnits="userSpaceOnUse" x1="13.6808" y1="29.913" x2="28.7071" y2="8.4531">
	<stop  offset="0" style="stop-color:#2EB2E7"/>
	<stop  offset="1" style="stop-color:#64BB46"/>
</linearGradient>
<path class="st1" d="M33.5,25.6c0,0-0.1,0-0.1,0c-0.1,0-0.2-0.1-0.3-0.2C33,25.2,33,25.1,33,25l2.7-10.9c0.1-0.2,0.2-0.4,0.5-0.4
	c0,0,0.1,0,0.1,0c0.2,0.1,0.4,0.3,0.3,0.6l-2.7,10.9C33.9,25.4,33.7,25.6,33.5,25.6z M6.8,25c-0.3,0-0.5-0.2-0.5-0.5
	c0-0.3,0.2-0.5,0.5-0.5h11.9c0.3,0,0.5,0.2,0.5,0.5c0,0.3-0.2,0.5-0.5,0.5H6.8z M38.6,23.6c-0.1,0-0.2,0-0.3-0.1
	c-0.2-0.2-0.2-0.5,0-0.7l3.1-3.1l-3.1-3.1c-0.2-0.2-0.2-0.5,0-0.7c0.1-0.1,0.2-0.1,0.3-0.1c0.1,0,0.2,0,0.3,0.1l3.4,3.4
	c0.1,0.1,0.1,0.2,0.1,0.3c0,0.1,0,0.2-0.1,0.3l-3.4,3.4C38.8,23.5,38.7,23.6,38.6,23.6z M31.1,23.6c-0.1,0-0.2,0-0.3-0.1L27.4,20
	c-0.1-0.1-0.1-0.2-0.1-0.3c0-0.1,0-0.2,0.1-0.3l3.4-3.4c0.1-0.1,0.2-0.1,0.3-0.1c0.1,0,0.2,0,0.3,0.1c0.1,0.1,0.1,0.2,0.1,0.3
	c0,0.1,0,0.2-0.1,0.3l-3.1,3.1l3.1,3.1c0.2,0.2,0.2,0.5,0,0.7C31.4,23.5,31.3,23.6,31.1,23.6z M6.8,21.8c-0.3,0-0.5-0.2-0.5-0.5
	c0-0.3,0.2-0.5,0.5-0.5h15.5c0.3,0,0.5,0.2,0.5,0.5c0,0.3-0.2,0.5-0.5,0.5H6.8z M6.8,18.7c-0.3,0-0.5-0.2-0.5-0.5
	c0-0.3,0.2-0.5,0.5-0.5h15.5c0.3,0,0.5,0.2,0.5,0.5c0,0.3-0.2,0.5-0.5,0.5H6.8z M7.5,12.3c-0.9,0-1.7-0.8-1.7-1.7
	c0-0.9,0.8-1.7,1.7-1.7c0.9,0,1.7,0.8,1.7,1.7C9.2,11.5,8.5,12.3,7.5,12.3z M7.5,9.9c-0.4,0-0.7,0.3-0.7,0.7c0,0.4,0.3,0.7,0.7,0.7
	c0.4,0,0.7-0.3,0.7-0.7C8.3,10.2,7.9,9.9,7.5,9.9z M16.8,12.3c-0.9,0-1.7-0.8-1.7-1.7c0-0.9,0.8-1.7,1.7-1.7c0.9,0,1.7,0.8,1.7,1.7
	C18.5,11.5,17.7,12.3,16.8,12.3z M16.8,9.9c-0.4,0-0.7,0.3-0.7,0.7c0,0.4,0.3,0.7,0.7,0.7c0.4,0,0.7-0.3,0.7-0.7
	C17.5,10.2,17.2,9.9,16.8,9.9z M12.1,12.3c-0.9,0-1.7-0.8-1.7-1.7c0-0.9,0.8-1.7,1.7-1.7c0.9,0,1.7,0.8,1.7,1.7
	C13.8,11.5,13.1,12.3,12.1,12.3z M12.1,9.9c-0.4,0-0.7,0.3-0.7,0.7c0,0.4,0.3,0.7,0.7,0.7c0.4,0,0.7-0.3,0.7-0.7
	C12.9,10.2,12.6,9.9,12.1,9.9z"/>
</svg>
